<svg width="167" height="36" viewBox="0 0 167 36" fill="none" xmlns="http://www.w3.org/2000/svg">
<path d="M6.00613 8.36H21.0301V1.4H6.00613V8.36ZM6.00613 21.512H20.5501V14.984H6.00613V21.512ZM0.630125 1.4V35H8.40613V1.4H0.630125ZM26.0094 4.616C26.0094 5.768 26.4254 6.712 27.2574 7.448C28.0894 8.184 29.0814 8.552 30.2334 8.552C31.4174 8.552 32.4094 8.184 33.2094 7.448C34.0414 6.712 34.4574 5.768 34.4574 4.616C34.4574 3.464 34.0414 2.536 33.2094 1.832C32.4094 1.096 31.4174 0.727998 30.2334 0.727998C29.0814 0.727998 28.0894 1.096 27.2574 1.832C26.4254 2.536 26.0094 3.464 26.0094 4.616ZM26.7294 12.92V35H33.7374V12.92H26.7294ZM54.059 21.56V35H61.595V20.792C61.595 18.136 60.971 16.072 59.723 14.6C58.475 13.128 56.475 12.392 53.723 12.392C52.091 12.392 50.715 12.728 49.595 13.4C48.507 14.072 47.643 15.016 47.003 16.232V12.92H39.707V35H47.003V21.56C47.003 20.696 47.163 19.96 47.483 19.352C47.803 18.744 48.251 18.28 48.827 17.96C49.403 17.64 50.075 17.48 50.843 17.48C51.995 17.48 52.811 17.832 53.291 18.536C53.803 19.24 54.059 20.248 54.059 21.56ZM72.9324 28.088C72.9324 27.544 73.0604 27.096 73.3164 26.744C73.5724 26.36 73.9564 26.072 74.4684 25.88C74.9804 25.688 75.6684 25.592 76.5324 25.592C77.6524 25.592 78.7084 25.752 79.7004 26.072C80.7244 26.36 81.6204 26.792 82.3884 27.368V24.152C82.0044 23.736 81.4284 23.336 80.6604 22.952C79.8924 22.568 78.9644 22.248 77.8764 21.992C76.8204 21.736 75.6204 21.608 74.2764 21.608C71.5244 21.608 69.3964 22.232 67.8924 23.48C66.3884 24.696 65.6364 26.36 65.6364 28.472C65.6364 29.976 65.9884 31.256 66.6924 32.312C67.4284 33.368 68.3884 34.168 69.5724 34.712C70.7884 35.224 72.1004 35.48 73.5084 35.48C74.9164 35.48 76.2284 35.24 77.4444 34.76C78.6604 34.248 79.6524 33.512 80.4204 32.552C81.1884 31.56 81.5724 30.36 81.5724 28.952L80.8044 26.072C80.8044 27.096 80.5804 27.96 80.1324 28.664C79.6844 29.368 79.1084 29.896 78.4044 30.248C77.7004 30.6 76.9324 30.776 76.1004 30.776C75.5244 30.776 74.9964 30.68 74.5164 30.488C74.0364 30.264 73.6524 29.96 73.3644 29.576C73.0764 29.16 72.9324 28.664 72.9324 28.088ZM69.7164 19.688C70.0364 19.496 70.5484 19.256 71.2524 18.968C71.9564 18.648 72.7724 18.376 73.7004 18.152C74.6604 17.928 75.6364 17.816 76.6284 17.816C77.3004 17.816 77.8924 17.88 78.4044 18.008C78.9484 18.136 79.3964 18.344 79.7484 18.632C80.1004 18.92 80.3564 19.272 80.5164 19.688C80.7084 20.072 80.8044 20.536 80.8044 21.08V35H87.7644V19.448C87.7644 17.912 87.3164 16.616 86.4204 15.56C85.5244 14.504 84.3084 13.704 82.7724 13.16C81.2364 12.584 79.4924 12.296 77.5404 12.296C75.4604 12.296 73.5404 12.568 71.7804 13.112C70.0204 13.656 68.5164 14.232 67.2684 14.84L69.7164 19.688ZM107.543 21.56V35H115.079V20.792C115.079 18.136 114.455 16.072 113.207 14.6C111.959 13.128 109.959 12.392 107.207 12.392C105.575 12.392 104.199 12.728 103.079 13.4C101.991 14.072 101.127 15.016 100.487 16.232V12.92H93.1914V35H100.487V21.56C100.487 20.696 100.647 19.96 100.967 19.352C101.287 18.744 101.735 18.28 102.311 17.96C102.887 17.64 103.559 17.48 104.327 17.48C105.479 17.48 106.295 17.832 106.775 18.536C107.287 19.24 107.543 20.248 107.543 21.56ZM130.257 19.496L118.689 35H140.769V28.424H131.265L142.305 12.92H120.705V19.496H130.257ZM151.495 28.088C151.495 27.544 151.623 27.096 151.879 26.744C152.135 26.36 152.519 26.072 153.031 25.88C153.543 25.688 154.231 25.592 155.095 25.592C156.215 25.592 157.271 25.752 158.263 26.072C159.287 26.36 160.183 26.792 160.951 27.368V24.152C160.567 23.736 159.991 23.336 159.223 22.952C158.455 22.568 157.527 22.248 156.439 21.992C155.383 21.736 154.183 21.608 152.839 21.608C150.087 21.608 147.959 22.232 146.455 23.48C144.951 24.696 144.199 26.36 144.199 28.472C144.199 29.976 144.551 31.256 145.255 32.312C145.991 33.368 146.951 34.168 148.135 34.712C149.351 35.224 150.663 35.48 152.071 35.48C153.479 35.48 154.791 35.24 156.007 34.76C157.223 34.248 158.215 33.512 158.983 32.552C159.751 31.56 160.135 30.36 160.135 28.952L159.367 26.072C159.367 27.096 159.143 27.96 158.695 28.664C158.247 29.368 157.671 29.896 156.967 30.248C156.263 30.6 155.495 30.776 154.663 30.776C154.087 30.776 153.559 30.68 153.079 30.488C152.599 30.264 152.215 29.96 151.927 29.576C151.639 29.16 151.495 28.664 151.495 28.088ZM148.279 19.688C148.599 19.496 149.111 19.256 149.815 18.968C150.519 18.648 151.335 18.376 152.263 18.152C153.223 17.928 154.199 17.816 155.191 17.816C155.863 17.816 156.455 17.88 156.967 18.008C157.511 18.136 157.959 18.344 158.311 18.632C158.663 18.92 158.919 19.272 159.079 19.688C159.271 20.072 159.367 20.536 159.367 21.08V35H166.327V19.448C166.327 17.912 165.879 16.616 164.983 15.56C164.087 14.504 162.871 13.704 161.335 13.16C159.799 12.584 158.055 12.296 156.103 12.296C154.023 12.296 152.103 12.568 150.343 13.112C148.583 13.656 147.079 14.232 145.831 14.84L148.279 19.688Z" fill="#355EFC"/>
</svg>
