<svg width="38" height="30" viewBox="0 0 38 30" fill="none" xmlns="http://www.w3.org/2000/svg">
<ellipse cx="19.3333" cy="15" rx="18.6667" ry="15" fill="#E4E8FD"/>
<path d="M16.1049 22H13.4526V12.6529H16.1049V22ZM14.7774 11.3779C13.9292 11.3779 13.2413 10.6091 13.2413 9.68097C13.2413 9.23515 13.4032 8.80759 13.6912 8.49235C13.9793 8.1771 14.37 8 14.7774 8C15.1847 8 15.5754 8.1771 15.8635 8.49235C16.1516 8.80759 16.3134 9.23515 16.3134 9.68097C16.3134 10.6091 15.6252 11.3779 14.7774 11.3779ZM26.0316 22H23.385V17.4499C23.385 16.3655 23.365 14.9748 22.006 14.9748C20.6271 14.9748 20.4158 16.153 20.4158 17.3718V22H17.7663V12.6529H20.3101V13.9279H20.3472C20.7013 13.1936 21.5663 12.4185 22.8567 12.4185C25.541 12.4185 26.0344 14.353 26.0344 16.8655V22H26.0316Z" fill="#355EFC"/>
</svg>
