<svg width="38" height="30" viewBox="0 0 38 30" fill="none" xmlns="http://www.w3.org/2000/svg">
<ellipse cx="19" cy="15" rx="18.6667" ry="15" fill="#E4E8FD"/>
<path d="M24.4912 12.4891C24.4993 12.6422 24.4993 12.7953 24.4993 12.9484C24.4993 17.6187 21.8836 23 17.1031 23C15.6303 23 14.2621 22.4203 13.1112 21.4141C13.3205 21.4469 13.5216 21.4578 13.739 21.4578C14.9542 21.4578 16.0729 20.9 16.9662 19.9485C15.8234 19.9156 14.8657 18.8984 14.5357 17.4984C14.6967 17.5312 14.8576 17.5531 15.0267 17.5531C15.26 17.5531 15.4935 17.5093 15.7107 17.4328C14.5196 17.1047 13.6263 15.6828 13.6263 13.9656V13.9219C13.9723 14.1844 14.3748 14.3484 14.8013 14.3703C14.1011 13.7359 13.6424 12.6531 13.6424 11.4281C13.6424 10.7719 13.7711 10.1703 13.9965 9.6453C15.2761 11.789 17.1996 13.189 19.3565 13.3422C19.3163 13.0797 19.2921 12.8063 19.2921 12.5328C19.2921 10.5859 20.451 9 21.8916 9C22.6401 9 23.3162 9.42656 23.791 10.1156C24.3785 9.96251 24.9419 9.66718 25.4409 9.2625C25.2477 10.0828 24.8372 10.7719 24.298 11.2094C24.8212 11.1328 25.3282 10.9359 25.795 10.6625C25.4409 11.3625 24.9982 11.9859 24.4912 12.4891Z" fill="#355EFC"/>
</svg>
